<svg width="45" height="41" viewBox="0 0 45 41" fill="none" xmlns="http://www.w3.org/2000/svg">
<path fill-rule="evenodd" clip-rule="evenodd" d="M18.7029 0.791992C13.5784 0.791992 9.4862 5.05922 9.4862 10.2455C9.4862 15.4317 13.5784 19.6989 18.7029 19.6989C23.8274 19.6989 27.9195 15.4317 27.9195 10.2455C27.9195 5.05922 23.8274 0.791992 18.7029 0.791992ZM11.9862 10.2455C11.9862 6.3704 15.0276 3.29199 18.7029 3.29199C22.3781 3.29199 25.4195 6.3704 25.4195 10.2455C25.4195 14.1205 22.3781 17.1989 18.7029 17.1989C15.0276 17.1989 11.9862 14.1205 11.9862 10.2455ZM10.7362 25.4028C5.61171 25.4028 1.51953 29.67 1.51953 34.8562V38.958C1.51953 39.6483 2.07918 40.208 2.76953 40.208C3.45989 40.208 4.01953 39.6483 4.01953 38.958V34.8562C4.01953 30.9812 7.06095 27.9028 10.7362 27.9028H26.6695C30.3448 27.9028 33.3862 30.9812 33.3862 34.8562V38.958C33.3862 39.6483 33.9458 40.208 34.6362 40.208C35.3266 40.208 35.8862 39.6483 35.8862 38.958V34.8562C35.8862 29.67 31.794 25.4028 26.6695 25.4028H10.7362Z" fill="#3CE0A0"/>
<path d="M43.0964 26C43.0964 30.7003 39.3035 34.5 34.638 34.5C29.9725 34.5 26.1797 30.7003 26.1797 26C26.1797 21.2997 29.9725 17.5 34.638 17.5C39.3035 17.5 43.0964 21.2997 43.0964 26Z" fill="white" stroke="#3CE0A0" stroke-width="3"/>
<path fill-rule="evenodd" clip-rule="evenodd" d="M35.6378 23C35.6378 22.4477 35.1901 22 34.6378 22C34.0855 22 33.6378 22.4477 33.6378 23V25H31.6543C31.102 25 30.6543 25.4477 30.6543 26C30.6543 26.5523 31.102 27 31.6543 27H33.6378V29C33.6378 29.5523 34.0855 30 34.6378 30C35.1901 30 35.6378 29.5523 35.6378 29V27H37.621C38.1732 27 38.621 26.5523 38.621 26C38.621 25.4477 38.1732 25 37.621 25H35.6378V23Z" fill="#3CE0A0"/>
</svg>
