<svg width="41" height="40" viewBox="0 0 41 40" fill="none" xmlns="http://www.w3.org/2000/svg">
<path d="M33.2 18.2C29.3 18.2 26.2 21.3 26.2 25.2C26.2 29.1 29.3 32.2 33.2 32.2C37.1 32.2 40.2 29.1 40.2 25.2C40.2 21.3 37.1 18.2 33.2 18.2ZM36.2 26.2H34.2V28.2C34.2 28.8 33.8 29.2 33.2 29.2C32.6 29.2 32.2 28.8 32.2 28.2V26.2H30.2C29.6 26.2 29.2 25.8 29.2 25.2C29.2 24.6 29.6 24.2 30.2 24.2H32.2V22.2C32.2 21.6 32.6 21.2 33.2 21.2C33.8 21.2 34.2 21.6 34.2 22.2V24.2H36.2C36.8 24.2 37.2 24.6 37.2 25.2C37.2 25.8 36.8 26.2 36.2 26.2Z" fill="#3CE0A0"/>
<path d="M23.2 24.6H9.2C4.1 24.6 0 28.9 0 34.1V38.2C0 38.9 0.6 39.4 1.2 39.4C1.8 39.4 2.4 38.8 2.4 38.2V34.1C2.4 30.2 5.5 27.1 9.2 27.1H23.4C23.3 26.5 23.2 25.9 23.2 25.2C23.2 25 23.2 24.8 23.2 24.6Z" fill="#3CE0A0"/>
<path d="M17.2 0C12.1 0 8 4.3 8 9.5C8 14.7 12.1 19 17.2 19C22.3 19 26.4 14.7 26.4 9.5C26.4 4.3 22.3 0 17.2 0ZM17.2 16.4C13.5 16.4 10.4 13.3 10.4 9.4C10.4 5.5 13.5 2.4 17.2 2.4C20.9 2.4 24 5.5 24 9.4C24 13.3 20.9 16.4 17.2 16.4Z" fill="#3CE0A0"/>
<path d="M32 35.1V38.1C32 38.8 32.6 39.3 33.2 39.3C33.9 39.3 34.4 38.7 34.4 38.1V35.1C34 35.2 33.6 35.2 33.2 35.2C32.8 35.2 32.4 35.2 32 35.1Z" fill="#3CE0A0"/>
</svg>
