<svg width="39" height="30" viewBox="0 0 39 30" fill="none" xmlns="http://www.w3.org/2000/svg">
<path d="M0.5 2.5C0.5 1.96554 0.707125 1.45544 1.07193 1.08128C1.43631 0.707557 1.92779 0.5 2.4375 0.5H36.5625C37.0722 0.5 37.5637 0.707557 37.9281 1.08128C38.2929 1.45544 38.5 1.96554 38.5 2.5C38.5 3.03446 38.2929 3.54456 37.9281 3.91872C37.5637 4.29244 37.0722 4.5 36.5625 4.5H2.4375C1.92779 4.5 1.43631 4.29244 1.07193 3.91872C0.707125 3.54456 0.5 3.03446 0.5 2.5ZM0.5 15C0.5 14.4655 0.707125 13.9554 1.07193 13.5813C1.43631 13.2076 1.92779 13 2.4375 13H36.5625C37.0722 13 37.5637 13.2076 37.9281 13.5813C38.2929 13.9554 38.5 14.4655 38.5 15C38.5 15.5345 38.2929 16.0446 37.9281 16.4187C37.5637 16.7924 37.0722 17 36.5625 17H2.4375C1.92779 17 1.43631 16.7924 1.07193 16.4187C0.707125 16.0446 0.5 15.5345 0.5 15ZM0.5 27.5C0.5 26.9655 0.707125 26.4554 1.07193 26.0813C1.43631 25.7076 1.92779 25.5 2.4375 25.5H36.5625C37.0722 25.5 37.5637 25.7076 37.9281 26.0813C38.2929 26.4554 38.5 26.9655 38.5 27.5C38.5 28.0345 38.2929 28.5446 37.9281 28.9187C37.5637 29.2924 37.0722 29.5 36.5625 29.5H2.4375C1.92779 29.5 1.43631 29.2924 1.07193 28.9187C0.707125 28.5446 0.5 28.0345 0.5 27.5Z" fill="white" stroke="#3CE0A0"/>
</svg>
