<svg width="22" height="21" viewBox="0 0 22 21" fill="none" xmlns="http://www.w3.org/2000/svg">
<path d="M20.2012 14.7072L17.7064 12.2239C17.1977 11.6935 16.568 11.4041 15.8898 11.4041C15.2358 11.4041 14.606 11.6935 14.0731 12.1998L12.8136 13.4535C12.7894 13.4294 12.741 13.4053 12.7167 13.4053L12.6683 13.3812C12.5714 13.333 12.4988 13.3088 12.4019 13.2606C12.3534 13.2365 12.2808 13.1883 12.2323 13.1642C10.9244 12.3444 9.7375 11.2836 8.57488 9.86108C8.06623 9.23421 7.72713 8.7279 7.48491 8.22158C7.77557 7.93226 8.09045 7.64294 8.3811 7.35362L8.76865 6.96785C9.30152 6.43743 9.59218 5.78645 9.59218 5.13548C9.59218 4.4845 9.30152 3.85764 8.76865 3.32721L7.53335 2.07348C7.41225 1.92882 7.26692 1.78416 7.14581 1.63949C6.87937 1.35017 6.5645 1.03674 6.29806 0.795637C5.76519 0.289323 5.13543 0 4.50567 0C3.87592 0 3.24616 0.265212 2.68906 0.771527L1.11467 2.33869C0.460691 2.98967 0.0973691 3.76119 0.0247048 4.67738C-0.072181 6.02755 0.291141 7.25718 0.630241 8.19747C1.38111 10.2227 2.49529 12.1033 4.19079 14.1045C6.2254 16.5155 8.64754 18.4202 11.4572 19.7704C12.4261 20.2526 13.9278 20.8794 15.6475 21H15.9382C17.0766 21 18.0697 20.566 18.8205 19.7704L18.869 19.7222C19.0628 19.4811 19.305 19.24 19.6199 18.9506C19.8378 18.7819 20.0316 18.589 20.2496 18.3479C21.2669 17.2629 21.2669 15.7681 20.2012 14.7072ZM5.88629 7.0884C5.49875 7.47417 5.37764 7.93226 5.52297 8.43858C5.52297 8.51091 5.57142 8.55913 5.59564 8.60735C5.93474 9.40299 6.39495 10.1745 7.09737 11.0425C8.3811 12.6096 9.7375 13.8393 11.2392 14.7796C11.3603 14.8519 11.5057 14.9242 11.6268 14.9966C11.6994 15.0207 11.7479 15.0689 11.7963 15.093L11.8448 15.1171C11.9417 15.1653 12.0143 15.1894 12.087 15.2377C12.1596 15.2618 12.2081 15.31 12.2565 15.3341C12.2808 15.3582 12.3292 15.3582 12.3534 15.3823C12.5472 15.4788 12.741 15.527 12.9105 15.527C13.2496 15.527 13.5645 15.3823 13.8552 15.1171L15.4295 13.5499C15.5264 13.4535 15.7202 13.3088 15.8655 13.3088C16.0109 13.3088 16.1562 13.4294 16.3015 13.5499L18.8205 16.0574C19.087 16.3226 19.0628 16.5155 19.0628 16.5637C19.0385 16.7325 18.9174 16.9013 18.7963 16.9977L18.7721 17.0459C18.6752 17.1665 18.5541 17.287 18.433 17.4076C18.3846 17.4558 18.3361 17.504 18.2877 17.5522L18.1181 17.721C17.8759 17.9621 17.6337 18.2032 17.3915 18.4925C17.0039 18.9024 16.568 19.0953 15.9382 19.0953H15.7444C14.388 18.9747 13.1285 18.4443 12.305 18.0586C9.76173 16.8289 7.53335 15.093 5.69252 12.899C4.19079 11.0907 3.14927 9.40298 2.44685 7.5465C2.03508 6.50976 1.88976 5.64179 1.96242 4.87026C2.01086 4.43628 2.18041 4.07463 2.49529 3.73708L4.04547 2.19403C4.14235 2.09759 4.3119 1.95293 4.48145 1.95293C4.651 1.95293 4.82055 2.07348 4.94166 2.19403C5.13543 2.3628 5.28076 2.53157 5.47453 2.70034C5.57142 2.79679 5.6683 2.89323 5.76519 2.98967L7.43647 4.65327C7.60602 4.82204 7.7029 4.99082 7.7029 5.11137C7.7029 5.23192 7.60602 5.40069 7.43647 5.56946L7.0247 5.97933C6.63716 6.3651 6.27384 6.72675 5.88629 7.0884Z" fill="#363636"/>
</svg>
