<svg width="25" height="20" viewBox="0 0 25 20" fill="none" xmlns="http://www.w3.org/2000/svg">
<path fill-rule="evenodd" clip-rule="evenodd" d="M2.81368 3.12254C3.0605 2.79548 3.47391 2.56522 3.97409 2.56522H21.5045C22.0047 2.56522 22.418 2.79543 22.6649 3.12243L12.7392 10.2122L2.81368 3.12254ZM1.18954 2.83722C1.17429 2.85497 1.1597 2.87356 1.14583 2.89297C1.01151 3.08103 0.972294 3.30827 1.01865 3.51743C1.00645 3.62204 1.00018 3.72863 1.00018 3.83696V16.163C1.00018 17.772 2.38499 19 3.97409 19H21.5045C23.0936 19 24.4784 17.772 24.4784 16.163V3.83696C24.4784 3.7284 24.4721 3.62158 24.4599 3.51676C24.506 3.30778 24.4667 3.08083 24.3326 2.89297C24.3188 2.87374 24.3044 2.85531 24.2893 2.83771C23.8581 1.74637 22.7434 1 21.5045 1H3.97409C2.73542 1 1.62086 1.74614 1.18954 2.83722ZM22.9132 4.86853V16.163C22.9132 16.8139 22.3259 17.4348 21.5045 17.4348H3.97409C3.15275 17.4348 2.56539 16.8139 2.56539 16.163V4.86869L12.2843 11.8108C12.5564 12.0051 12.922 12.0051 13.1941 11.8108L22.9132 4.86853Z" fill="#363636"/>
<path d="M2.81368 3.12254L2.69395 3.03218C2.66957 3.06448 2.65928 3.10526 2.66541 3.14526C2.67154 3.18526 2.69357 3.22108 2.72649 3.2446L2.81368 3.12254ZM22.6649 3.12243L22.752 3.24449C22.785 3.22097 22.807 3.18515 22.8131 3.14514C22.8193 3.10514 22.809 3.06436 22.7846 3.03207L22.6649 3.12243ZM12.7392 10.2122L12.652 10.3343C12.7042 10.3715 12.7742 10.3715 12.8264 10.3343L12.7392 10.2122ZM1.14583 2.89297L1.02377 2.80579L1.02377 2.80579L1.14583 2.89297ZM1.18954 2.83722L1.30333 2.93495C1.31421 2.92229 1.3229 2.90789 1.32903 2.89236L1.18954 2.83722ZM1.01865 3.51743L1.16764 3.5348C1.16958 3.51816 1.16872 3.50132 1.16509 3.48498L1.01865 3.51743ZM24.4599 3.51676L24.3134 3.48443C24.3098 3.50075 24.309 3.51756 24.3109 3.53416L24.4599 3.51676ZM24.3326 2.89297L24.2105 2.98016V2.98016L24.3326 2.89297ZM24.2893 2.83771L24.1498 2.89283C24.1559 2.90833 24.1645 2.9227 24.1754 2.93535L24.2893 2.83771ZM22.9132 4.86853H23.0632C23.0632 4.81234 23.0318 4.76087 22.9819 4.73516C22.9319 4.70944 22.8718 4.71381 22.826 4.74647L22.9132 4.86853ZM2.56539 4.86869L2.65258 4.74663C2.60686 4.71397 2.54672 4.70961 2.49676 4.73532C2.44679 4.76103 2.41539 4.81251 2.41539 4.86869H2.56539ZM12.2843 11.8108L12.3715 11.6887L12.2843 11.8108ZM13.1941 11.8108L13.1069 11.6887L13.1941 11.8108ZM3.97409 2.41522C3.42644 2.41522 2.96887 2.66789 2.69395 3.03218L2.93341 3.2129C3.15214 2.92307 3.52137 2.71522 3.97409 2.71522V2.41522ZM21.5045 2.41522H3.97409V2.71522H21.5045V2.41522ZM22.7846 3.03207C22.5096 2.66783 22.0521 2.41522 21.5045 2.41522V2.71522C21.9572 2.71522 22.3264 2.92302 22.5451 3.2128L22.7846 3.03207ZM12.8264 10.3343L22.752 3.24449L22.5777 3.00037L12.652 10.0901L12.8264 10.3343ZM2.72649 3.2446L12.652 10.3343L12.8264 10.0901L2.90087 3.00048L2.72649 3.2446ZM1.26789 2.98016C1.27916 2.96439 1.29099 2.94932 1.30333 2.93495L1.07575 2.73948C1.05759 2.76062 1.04024 2.78273 1.02377 2.80579L1.26789 2.98016ZM1.16509 3.48498C1.12756 3.31559 1.15932 3.13216 1.26789 2.98016L1.02377 2.80579C0.863697 3.0299 0.817032 3.30094 0.872199 3.54988L1.16509 3.48498ZM1.15018 3.83696C1.15018 3.73444 1.15612 3.63364 1.16764 3.5348L0.869655 3.50006C0.856789 3.61044 0.850175 3.72283 0.850175 3.83696H1.15018ZM1.15018 16.163V3.83696H0.850175V16.163H1.15018ZM3.97409 18.85C2.45781 18.85 1.15018 17.6794 1.15018 16.163H0.850175C0.850175 17.8645 2.31218 19.15 3.97409 19.15V18.85ZM21.5045 18.85H3.97409V19.15H21.5045V18.85ZM24.3284 16.163C24.3284 17.6794 23.0208 18.85 21.5045 18.85V19.15C23.1664 19.15 24.6284 17.8645 24.6284 16.163H24.3284ZM24.3284 3.83696V16.163H24.6284V3.83696H24.3284ZM24.3109 3.53416C24.3225 3.63321 24.3284 3.73422 24.3284 3.83696H24.6284C24.6284 3.72259 24.6218 3.60996 24.6089 3.49936L24.3109 3.53416ZM24.2105 2.98016C24.3189 3.132 24.3508 3.3152 24.3134 3.48443L24.6064 3.54909C24.6613 3.30036 24.6145 3.02966 24.4546 2.80579L24.2105 2.98016ZM24.1754 2.93535C24.1876 2.9496 24.1993 2.96454 24.2105 2.98016L24.4546 2.80579C24.4383 2.78294 24.4211 2.76103 24.4031 2.74006L24.1754 2.93535ZM21.5045 1.15C22.6847 1.15 23.7423 1.86143 24.1498 2.89283L24.4288 2.78259C23.9739 1.63131 22.802 0.85 21.5045 0.85V1.15ZM3.97409 1.15H21.5045V0.85H3.97409V1.15ZM1.32903 2.89236C1.73667 1.86121 2.79404 1.15 3.97409 1.15V0.85C2.67679 0.85 1.50506 1.63107 1.05004 2.78207L1.32903 2.89236ZM23.0632 16.163V4.86853H22.7632V16.163H23.0632ZM21.5045 17.5848C22.4011 17.5848 23.0632 16.9042 23.0632 16.163H22.7632C22.7632 16.7236 22.2506 17.2848 21.5045 17.2848V17.5848ZM3.97409 17.5848H21.5045V17.2848H3.97409V17.5848ZM2.41539 16.163C2.41539 16.9042 3.07753 17.5848 3.97409 17.5848V17.2848C3.22797 17.2848 2.71539 16.7236 2.71539 16.163H2.41539ZM2.41539 4.86869V16.163H2.71539V4.86869H2.41539ZM12.3715 11.6887L2.65258 4.74663L2.47821 4.99075L12.1971 11.9328L12.3715 11.6887ZM13.1069 11.6887C12.8869 11.8458 12.5915 11.8458 12.3715 11.6887L12.1971 11.9328C12.5214 12.1645 12.957 12.1645 13.2813 11.9328L13.1069 11.6887ZM22.826 4.74647L13.1069 11.6887L13.2813 11.9328L23.0004 4.99059L22.826 4.74647Z" fill="#363636"/>
</svg>
