<svg width="39" height="40" viewBox="0 0 39 40" fill="none" xmlns="http://www.w3.org/2000/svg">
<path d="M35.5566 5.41668H16.3974C15.8765 2.87204 13.6221 0.952393 10.9286 0.952393H4.15778C2.31255 0.952393 0.80957 2.45537 0.80957 4.30061V35.6994C0.80957 37.5447 2.31255 39.0476 4.15778 39.0476H35.5566C37.4018 39.0476 38.9048 37.5447 38.9048 35.6994C38.9048 33.3036 38.9048 12.4405 38.9048 8.76489C38.9048 6.91965 37.4018 5.41668 35.5566 5.41668ZM4.15778 3.18454H10.9286C12.7739 3.18454 14.2768 4.68751 14.2768 6.53275C14.2768 7.15031 14.7753 7.64882 15.3929 7.64882H35.5566C36.1742 7.64882 36.6727 8.14733 36.6727 8.76489V14.3452H34.4405V10.997C34.4405 10.3795 33.942 9.88096 33.3244 9.88096H6.38993C5.77237 9.88096 5.27386 10.3795 5.27386 10.997V14.3452H3.04171V4.30061C3.04171 3.68305 3.54022 3.18454 4.15778 3.18454ZM7.506 14.3452V12.1131H32.2084V14.3452H7.506ZM36.6727 35.6994C36.6727 36.317 36.1742 36.8155 35.5566 36.8155H4.15778C3.54022 36.8155 3.04171 36.317 3.04171 35.6994V16.5774H36.6727V35.6994Z" fill="#3CE0A0"/>
<path fill-rule="evenodd" clip-rule="evenodd" d="M21.8182 21H18.1818V24.1818L15 24.1818V27.8182H18.1818V31H21.8182V27.8182H25V24.1818L21.8182 24.1818V21Z" fill="#3CE0A0"/>
</svg>
