<svg width="40" height="38" viewBox="0 0 40 38" fill="none" xmlns="http://www.w3.org/2000/svg">
<path d="M36.0008 4.50383C33.9969 2.34896 31.2359 1.09069 28.3266 1.00781C25.4172 0.924931 22.582 2.01744 20.4668 4.05176L19.9844 4.51137C15.8207 0.0283218 8.8664 -0.182645 4.45038 4.04423C0.0343665 8.2711 -0.173446 15.331 3.99023 19.814L5.07382 20.9819C4.61366 22.0593 4.7621 23.295 5.45976 24.2292C6.15741 25.1635 7.28554 25.6457 8.42851 25.5026C8.23554 26.5273 8.53983 27.5821 9.24491 28.3356C9.94999 29.0966 10.9668 29.4582 11.9836 29.3226C11.7906 30.3473 12.0949 31.4021 12.8 32.1556C13.5051 32.9166 14.5219 33.2782 15.5387 33.1426C15.2863 34.529 15.9394 35.9304 17.1641 36.6009C18.3887 37.2715 19.8953 37.0756 20.9121 36.1112C24.5266 32.6453 24.4152 32.8186 24.7566 32.2385C25.8105 32.7659 27.0723 32.6604 28.0297 31.9672C28.9871 31.274 29.4918 30.0986 29.3433 28.9082C30.3527 29.0966 31.3844 28.7876 32.134 28.0794C32.8762 27.3636 33.2398 26.3314 33.1062 25.2991C34.4793 25.5553 35.8672 24.8772 36.5203 23.6265C37.1808 22.3757 36.9656 20.8312 35.9933 19.814C39.9937 15.5269 40.0012 8.79852 36.0008 4.50383ZM6.61015 23.634C5.86796 22.8354 5.90507 21.5771 6.69179 20.8236L9.9871 17.6667C10.7738 16.9283 11.9984 16.9735 12.7332 17.7646C13.468 18.5557 13.4383 19.7989 12.6664 20.5599L9.37108 23.7169C8.59179 24.4628 7.35233 24.4327 6.61015 23.634ZM10.1652 27.454C9.42304 26.6554 9.46015 25.3971 10.2469 24.6436L13.5422 21.4867C14.3289 20.7332 15.5683 20.7709 16.3031 21.5696C17.0453 22.3682 17.0082 23.6265 16.2215 24.3724L12.9262 27.5294C12.1394 28.2828 10.9074 28.2452 10.1652 27.454ZM13.7203 31.2816C12.9781 30.4829 13.0152 29.2246 13.8019 28.4787L17.0973 25.3218C17.8914 24.6135 19.0863 24.6738 19.8062 25.4498C20.5262 26.2259 20.5187 27.4465 19.7766 28.2075L16.4812 31.3644C15.6945 32.1104 14.4625 32.0727 13.7203 31.2816ZM20.0363 35.1845C19.5316 35.6742 18.8043 35.8475 18.1363 35.6441C17.4683 35.4406 16.9562 34.8906 16.793 34.1974C16.6297 33.5043 16.8449 32.7809 17.357 32.2987L20.6523 29.1418C21.4391 28.4034 22.6637 28.4486 23.3984 29.2397C24.1332 30.0308 24.1035 31.274 23.3316 32.035L20.0363 35.1845ZM35.0137 23.5361C34.6351 23.8977 34.1305 24.0936 33.6183 24.0786C33.1062 24.0635 32.609 23.8374 32.2527 23.4532L23.8141 14.3741C23.5766 14.1179 23.1758 14.1028 22.916 14.3515C22.6637 14.5926 22.6488 14.9994 22.8937 15.2631L31.3324 24.3423C31.8148 24.8546 31.9855 25.593 31.7851 26.2711C31.5848 26.9492 31.043 27.4691 30.3601 27.6349C29.6773 27.8006 28.9648 27.5821 28.4898 27.0698L20.0512 17.9831C19.8953 17.8174 19.6652 17.742 19.4426 17.8023C19.2199 17.855 19.0492 18.0208 18.9824 18.2468C18.9156 18.4653 18.975 18.7064 19.1308 18.8722L27.5695 27.9513C28.2375 28.6671 28.282 29.7747 27.6808 30.5432C27.0797 31.3117 26.0109 31.5227 25.1723 31.0254C25.3059 30.1062 25.0387 29.1719 24.4523 28.4637C23.866 27.7554 23.0051 27.3335 22.0848 27.3109C21.3871 27.2958 21.6394 27.5595 21.6617 26.8513C21.684 25.9848 21.3723 25.1409 20.7859 24.508C20.1996 23.8751 19.3906 23.5059 18.5371 23.4833C17.8394 23.4607 18.0918 23.7395 18.1141 23.0237C18.1363 22.1572 17.8246 21.3134 17.2383 20.6805C16.6519 20.0476 15.843 19.6784 14.9894 19.6558C14.2918 19.6332 14.5441 19.9195 14.5664 19.1962C14.6035 17.8776 13.8465 16.6646 12.659 16.1221C11.4715 15.5796 10.0836 15.8207 9.13358 16.7248C4.60624 21.0647 6.16483 19.5654 5.83085 19.8894L4.91796 18.9325C1.22929 14.9618 1.41484 8.71564 5.31874 4.97851C9.22265 1.24138 15.3754 1.42221 19.0641 5.39291L13.8762 10.3657C13.3863 10.8479 13.0969 11.4959 13.0672 12.1891C13.0004 14.8261 16.8746 16.4913 19.2348 14.2234L23.9625 9.69513C24.0812 9.57458 24.2445 9.5143 24.4152 9.52183C24.5859 9.52937 24.7418 9.59718 24.8605 9.72527C26.1 11.0589 33.9078 19.4524 35.0953 20.7332C35.4515 21.1175 35.6445 21.6298 35.6297 22.1497C35.6148 22.6696 35.3922 23.1744 35.0137 23.5361ZM35.125 18.8873L25.7808 8.83619C25.432 8.467 24.957 8.2485 24.4523 8.23343C23.9476 8.21836 23.4578 8.40672 23.0941 8.76085L18.3664 13.2891C17.8617 13.7713 17.1937 14.0275 16.5035 14.0049C15.8133 13.9823 15.1601 13.6809 14.6851 13.1685C14.4476 12.9124 14.3215 12.5733 14.3289 12.2192C14.3363 11.8651 14.4848 11.5336 14.7371 11.2925L21.3351 4.97851C25.15 1.31673 31.1394 1.39207 34.8652 5.14427C38.591 8.89647 38.7098 14.9844 35.125 18.8873Z" fill="#3CE0A0" stroke="#3CE0A0" stroke-width="0.75"/>
</svg>
