<svg width="20" height="16" viewBox="0 0 20 16" fill="none" xmlns="http://www.w3.org/2000/svg">
<path fill-rule="evenodd" clip-rule="evenodd" d="M2.64656 2.01375C2.69583 2.00475 2.74708 2 2.8 2H17.2C17.253 2 17.3042 2.00476 17.3535 2.01376L10 7.73312L2.64656 2.01375ZM0.560232 1.10165C0.427641 1.16644 0.307405 1.2617 0.210695 1.38604C0.00564692 1.64968 -0.0466805 1.98365 0.0404009 2.28146C0.0138606 2.4334 0 2.58991 0 2.75V13.25C0 14.7912 1.28446 16 2.8 16H17.2C18.7155 16 20 14.7912 20 13.25V2.75C20 2.58997 19.9862 2.43353 19.9596 2.28165C20.0468 1.98379 19.9945 1.64974 19.7894 1.38604C19.6927 1.26166 19.5724 1.16637 19.4397 1.10157C18.9236 0.428951 18.1028 0 17.2 0H2.8C1.89718 0 1.07636 0.428981 0.560232 1.10165ZM18 4.04466V13.25C18 13.6338 17.6645 14 17.2 14H2.8C2.33554 14 2 13.6338 2 13.25V4.04459L9.38611 9.78934C9.74722 10.0702 10.2529 10.0702 10.614 9.78934L18 4.04466Z" fill="#3CE0A0"/>
</svg>
