<svg width="12" height="13" viewBox="0 0 12 13" fill="none" xmlns="http://www.w3.org/2000/svg">
<path fill-rule="evenodd" clip-rule="evenodd" d="M6.00011 0.805542C4.35554 0.805542 3.02789 2.14363 3.02789 3.7874C3.02789 5.43118 4.35554 6.76927 6.00011 6.76927C7.64468 6.76927 8.97233 5.43118 8.97233 3.7874C8.97233 2.14363 7.64468 0.805542 6.00011 0.805542ZM4.52789 3.7874C4.52789 2.96593 5.19008 2.30554 6.00011 2.30554C6.81014 2.30554 7.47233 2.96593 7.47233 3.7874C7.47233 4.60888 6.81014 5.26927 6.00011 5.26927C5.19008 5.26927 4.52789 4.60888 4.52789 3.7874ZM3.77789 7.50123C2.13332 7.50123 0.805664 8.83932 0.805664 10.4831V11.599C0.805664 12.0132 1.14145 12.349 1.55566 12.349C1.96988 12.349 2.30566 12.0132 2.30566 11.599V10.4831C2.30566 9.66162 2.96786 9.00123 3.77789 9.00123H8.22233C9.03236 9.00123 9.69455 9.66162 9.69455 10.4831V11.599C9.69455 12.0132 10.0303 12.349 10.4446 12.349C10.8588 12.349 11.1946 12.0132 11.1946 11.599V10.4831C11.1946 8.83932 9.8669 7.50123 8.22233 7.50123H3.77789Z" fill="#363636"/>
</svg>
