<svg width="42" height="42" viewBox="0 0 42 42" fill="none" xmlns="http://www.w3.org/2000/svg">
<path d="M22.6758 37.2671L37.268 22.6749L35.5281 20.935L34.0699 22.3932L32.3124 20.6357C30.297 18.6204 27.3455 17.8649 24.6097 18.664L22.8114 19.1893L23.3367 17.3911C24.1359 14.6552 23.3803 11.7037 21.365 9.68832L19.6075 7.9308L21.0657 6.47261L19.3258 4.73273L4.7334 19.3249L6.47328 21.0647L7.93147 19.6066L9.68899 21.3641C11.1731 22.8482 13.1648 23.6491 15.2043 23.6491C15.9344 23.6491 16.6706 23.5465 17.3918 23.3359L19.1901 22.8105L18.6648 24.6088C17.8655 27.3446 18.6211 30.2962 20.6365 32.3116L22.394 34.0691L20.9358 35.5273L22.6758 37.2671ZM24.6377 29.0777L25.6342 25.6663L29.0456 24.6698C29.9841 24.3955 30.9649 24.3687 31.8866 24.5766L24.5672 31.8959C24.3494 30.9739 24.3681 30.0006 24.6377 29.0777ZM16.7018 20.9739C14.8289 21.521 12.8085 21.0039 11.4289 19.6242L9.67135 17.8667L17.8675 9.67052L19.6251 11.4281C21.0047 12.8077 21.5219 14.8281 20.9748 16.701L20.0089 20.0079L16.7018 20.9739ZM21.0266 25.2988L21.9926 21.9919L25.2995 21.0259C26.9888 20.5324 28.7982 20.9051 30.1491 21.9954C29.547 22.0324 28.9451 22.1357 28.3557 22.3079L23.6503 23.6825L22.2758 28.3878C22.1099 28.9557 22.0102 29.5369 21.9738 30.12C20.901 28.7721 20.5366 26.9765 21.0266 25.2988Z" fill="#3CE0A0"/>
<path d="M2.73809 17.813C3.3927 14.0406 5.17524 10.61 7.89301 7.89234C11.0652 4.72019 15.2741 2.80705 19.7445 2.50551C23.7601 2.23505 27.7397 3.27193 31.0809 5.43968C30.9497 5.82343 30.8805 6.23014 30.8805 6.64768C30.8805 7.64181 31.2677 8.57648 31.9707 9.27948C32.6962 10.0051 33.6493 10.3679 34.6025 10.3679C35.5556 10.3679 36.5087 10.0051 37.2343 9.27948C37.9373 8.57648 38.3244 7.64189 38.3244 6.64768C38.3244 5.65346 37.9373 4.71879 37.2343 4.01587C36.5313 3.31286 35.5967 2.92567 34.6025 2.92567C33.8863 2.92567 33.2017 3.12755 32.6117 3.5026C28.7865 0.960449 24.204 -0.261407 19.5789 0.0503942C14.5143 0.392136 9.74634 2.55924 6.15313 6.15253C3.07483 9.23084 1.05554 13.1175 0.313736 17.3924C-0.411338 21.571 0.125966 25.8137 1.86757 29.662L4.10924 28.6476C2.57173 25.2502 2.09767 21.5038 2.73809 17.813ZM34.5774 5.28358C35.3307 5.28358 35.9412 5.89414 35.9412 6.64735C35.9412 7.40056 35.3307 8.01112 34.5774 8.01112C33.8242 8.01112 33.2137 7.40056 33.2137 6.64735C33.2137 5.89414 33.8242 5.28358 34.5774 5.28358Z" fill="#3CE0A0"/>
<path d="M40.264 12.634L38.0069 13.6135C39.471 16.9873 39.8965 20.6913 39.2375 24.3252C38.5633 28.0425 36.7893 31.4249 34.1073 34.107C30.9385 37.2758 26.7342 39.1886 22.2689 39.493C21.8456 39.5219 21.4234 39.5362 21.0016 39.5362C17.3667 39.536 13.8125 38.4713 10.7919 36.4758C11.2518 35.1666 10.9594 33.6499 9.91453 32.605C9.21152 31.902 8.27694 31.5149 7.28272 31.5149C6.2885 31.5149 5.35384 31.902 4.65091 32.605C3.1997 34.0561 3.1997 36.4174 4.65091 37.8685C5.35392 38.5715 6.2885 38.9586 7.28272 38.9586C7.98688 38.9586 8.66076 38.7635 9.24401 38.4004C12.708 40.7445 16.8077 41.9968 21.0018 41.9968C21.479 41.9968 21.9575 41.9806 22.4363 41.9479C27.495 41.6031 32.2577 39.4364 35.8471 35.8469C38.885 32.809 40.8945 28.9767 41.6585 24.7643C42.4047 20.6501 41.9225 16.4555 40.264 12.634ZM7.28264 36.6004C6.52943 36.6004 5.91887 35.9898 5.91887 35.2366C5.91887 34.4834 6.52943 33.8728 7.28264 33.8728C8.03585 33.8728 8.64641 34.4834 8.64641 35.2366C8.64641 35.9898 8.03585 36.6004 7.28264 36.6004Z" fill="#3CE0A0"/>
</svg>
