<svg width="20" height="20" viewBox="0 0 20 20" fill="none" xmlns="http://www.w3.org/2000/svg">
<path d="M18.1548 13.862L15.9959 11.713C15.5557 11.254 15.0107 11.0036 14.4238 11.0036C13.8579 11.0036 13.3129 11.254 12.8517 11.6921L11.7618 12.7771C11.7408 12.7562 11.6989 12.7353 11.6779 12.7353L11.636 12.7145C11.5522 12.6727 11.4893 12.6519 11.4054 12.6102C11.3635 12.5893 11.3006 12.5476 11.2587 12.5267C10.1268 11.8173 9.09975 10.8993 8.09362 9.66824C7.65345 9.12576 7.35999 8.68761 7.15038 8.24945C7.40192 7.99907 7.67441 7.7487 7.92594 7.49832L8.26131 7.16449C8.72245 6.70547 8.97398 6.14212 8.97398 5.57878C8.97398 5.01543 8.72245 4.47295 8.26131 4.01393L7.19231 2.92897C7.0875 2.80378 6.96174 2.6786 6.85693 2.55341C6.62636 2.30303 6.35387 2.03179 6.1233 1.82315C5.66216 1.38499 5.11718 1.13462 4.5722 1.13462C4.02722 1.13462 3.48223 1.36413 3.00013 1.80228L1.63768 3.15848C1.07173 3.72183 0.75732 4.3895 0.694437 5.18235C0.610594 6.35077 0.925007 7.41486 1.21846 8.22858C1.86825 9.98121 2.83245 11.6087 4.29971 13.3404C6.06042 15.4269 8.15651 17.0752 10.588 18.2436C11.4264 18.6609 12.726 19.2034 14.2142 19.3077H14.4657C15.4509 19.3077 16.3103 18.9321 16.9601 18.2436L17.002 18.2019C17.1697 17.9932 17.3793 17.7846 17.6518 17.5342C17.8404 17.3881 18.0081 17.2212 18.1968 17.0126C19.0771 16.0737 19.0771 14.7801 18.1548 13.862ZM5.76697 7.26881C5.43159 7.60265 5.32679 7.99907 5.45255 8.43723C5.45255 8.49982 5.49448 8.54155 5.51544 8.58328C5.80889 9.27182 6.20715 9.93948 6.81501 10.6906C7.92594 12.0468 9.09975 13.1109 10.3993 13.9246C10.5041 13.9872 10.6299 14.0498 10.7347 14.1124C10.7976 14.1333 10.8395 14.175 10.8814 14.1959L10.9233 14.2167C11.0072 14.2585 11.0701 14.2793 11.1329 14.3211C11.1958 14.3419 11.2378 14.3836 11.2797 14.4045C11.3006 14.4254 11.3426 14.4254 11.3635 14.4462C11.5312 14.5297 11.6989 14.5714 11.8456 14.5714C12.1391 14.5714 12.4116 14.4462 12.6631 14.2167L14.0255 12.8605C14.1094 12.7771 14.2771 12.6519 14.4028 12.6519C14.5286 12.6519 14.6544 12.7562 14.7801 12.8605L16.9601 15.0304C17.1906 15.26 17.1697 15.4269 17.1697 15.4686C17.1487 15.6147 17.0439 15.7607 16.9391 15.8442L16.9181 15.8859C16.8343 15.9902 16.7295 16.0945 16.6247 16.1989C16.5828 16.2406 16.5409 16.2823 16.4989 16.3241L16.3522 16.4701C16.1426 16.6788 15.933 16.8874 15.7234 17.1378C15.388 17.4925 15.0107 17.6594 14.4657 17.6594H14.298C13.1242 17.5551 12.0343 17.096 11.3216 16.7622C9.12071 15.6981 7.19231 14.1959 5.59928 12.2972C4.29971 10.7323 3.39839 9.27181 2.79052 7.66524C2.43419 6.76806 2.30842 6.01694 2.37131 5.34927C2.41323 4.9737 2.55995 4.66074 2.83245 4.36863L4.17394 3.0333C4.25779 2.94984 4.40451 2.82465 4.55124 2.82465C4.69796 2.82465 4.84469 2.92897 4.94949 3.0333C5.11718 3.17935 5.24295 3.3254 5.41063 3.47145C5.49448 3.55491 5.57832 3.63837 5.66216 3.72183L7.10846 5.16149C7.25519 5.30754 7.33903 5.45359 7.33903 5.55791C7.33903 5.66224 7.25519 5.80829 7.10846 5.95434L6.75213 6.30904C6.41675 6.64287 6.10234 6.95584 5.76697 7.26881Z" fill="#3CE0A0" stroke="#3CE0A0" stroke-width="0.4"/>
</svg>
