<svg width="107" height="50" viewBox="0 0 107 50" fill="none" xmlns="http://www.w3.org/2000/svg">
<path d="M7.21769 49.3534H0V10.4346H1.73998L4.59698 13.8395C5.2629 13.2145 5.97178 12.6327 6.72363 12.094C7.47547 11.5552 8.29176 11.0811 9.12952 10.6932C9.94581 10.3053 10.8265 9.98209 11.7073 9.76659C12.588 9.5511 13.4902 9.4218 14.4139 9.4218C16.3257 9.40025 18.2161 9.76659 19.999 10.4777C21.696 11.1673 23.2642 12.2017 24.5531 13.4947C25.8849 14.8308 26.9375 16.4255 27.6249 18.1925C28.3982 20.132 28.7849 22.2008 28.7419 24.2911C28.7849 26.4245 28.3982 28.5579 27.6249 30.5405C26.9375 32.3076 25.8849 33.9023 24.5531 35.2599C23.2427 36.5529 21.696 37.5442 19.999 38.2122C18.2161 38.9018 16.3257 39.2466 14.4139 39.2466C13.791 39.2466 13.1465 39.1819 12.545 39.0311C11.9221 38.8803 11.2991 38.7079 10.7191 38.4708C10.1177 38.2338 9.51619 37.9752 8.93619 37.6735C8.3562 37.3718 7.77621 37.0701 7.23918 36.7468L7.21769 49.3534ZM21.5457 24.2911C21.5672 23.1921 21.3738 22.1146 20.9872 21.0802C20.6435 20.1751 20.1279 19.3562 19.462 18.6666C18.8176 18.0201 18.0442 17.5029 17.185 17.1581C16.3043 16.7918 15.3591 16.6194 14.3924 16.6194C13.4473 16.6194 12.5021 16.7918 11.6213 17.1366C10.7621 17.4814 9.98877 17.9986 9.34434 18.6451C8.67842 19.3347 8.16287 20.1536 7.81917 21.0586C7.43251 22.093 7.23918 23.1921 7.26066 24.2911C7.23918 25.3686 7.43251 26.4245 7.81917 27.4158C8.16287 28.3209 8.67842 29.1398 9.34434 29.8294C9.98877 30.4974 10.7621 31.0146 11.6213 31.381C12.5021 31.7473 13.4258 31.9412 14.3924 31.9197C15.3591 31.9197 16.3043 31.7473 17.185 31.3594C18.0442 30.9931 18.8176 30.4759 19.462 29.8078C20.1279 29.1182 20.6435 28.2778 20.9872 27.3943C21.3738 26.4245 21.5672 25.347 21.5457 24.2911Z" fill="#3CE0A0"/>
<path d="M73.2177 39.3929H66V0H73.2177V39.3929Z" fill="#3CE0A0"/>
<path d="M61.6998 23.9133C61.7213 25.9174 61.3346 27.9215 60.5828 29.7748C59.8739 31.5203 58.8213 33.1366 57.5109 34.4942C56.2006 35.8303 54.6754 36.8862 52.9569 37.6189C49.391 39.1489 45.3526 39.1489 41.7867 37.6189C38.3067 36.1104 35.5571 33.309 34.1394 29.7748C33.366 27.9215 32.9794 25.9174 33.0008 23.9133C32.9794 21.8661 33.366 19.862 34.1179 17.9656C35.5356 14.4314 38.2852 11.6084 41.7652 10.1215C43.5267 9.36724 45.417 8.97935 47.3288 9.0009C49.2407 8.97935 51.1525 9.34569 52.9354 10.0784C54.6325 10.768 56.1791 11.7808 57.4895 13.0953C58.8213 14.453 59.8524 16.0477 60.5613 17.7932C61.3561 19.7327 61.7427 21.823 61.6998 23.9133ZM54.4821 23.9133C54.5036 22.8358 54.3102 21.7583 53.9236 20.767C53.5799 19.862 53.0428 19.0431 52.3984 18.3535C51.754 17.6854 50.9806 17.1467 50.1214 16.8019C48.3385 16.0908 46.3622 16.0908 44.5792 16.8019C43.72 17.1467 42.9681 17.6854 42.3237 18.3535C41.6793 19.0646 41.1637 19.8835 40.82 20.767C40.4334 21.7799 40.24 22.8358 40.2615 23.9133C40.2615 24.9477 40.4334 25.9605 40.7985 26.9303C41.1422 27.8353 41.6578 28.6542 42.3022 29.3438C42.9467 30.0334 43.6985 30.5722 44.5578 30.9601C45.417 31.3479 46.3622 31.5634 47.3288 31.5634C48.274 31.5634 49.2192 31.391 50.0999 31.0032C50.9592 30.6368 51.7325 30.1196 52.3769 29.4516C53.0428 28.762 53.5799 27.9215 53.9236 27.038C54.3102 26.0467 54.5036 24.9692 54.4821 23.9133Z" fill="#FFD900"/>
<path d="M106.7 24.9133C106.721 26.9174 106.335 28.9215 105.583 30.7748C104.874 32.5203 103.821 34.1366 102.511 35.4942C101.201 36.8303 99.6754 37.8862 97.9569 38.6189C94.391 40.1489 90.3526 40.1489 86.7867 38.6189C83.3067 37.1104 80.5571 34.309 79.1394 30.7748C78.366 28.9215 77.9794 26.9174 78.0008 24.9133C77.9794 22.8661 78.366 20.862 79.1179 18.9656C80.5356 15.4314 83.2852 12.6084 86.7652 11.1215C88.5267 10.3672 90.417 9.97935 92.3288 10.0009C94.2407 9.97935 96.1525 10.3457 97.9354 11.0784C99.6325 11.768 101.179 12.7808 102.489 14.0953C103.821 15.453 104.852 17.0477 105.561 18.7932C106.356 20.7327 106.743 22.823 106.7 24.9133ZM99.4821 24.9133C99.5036 23.8358 99.3102 22.7583 98.9236 21.767C98.5799 20.862 98.0428 20.0431 97.3984 19.3535C96.754 18.6854 95.9806 18.1467 95.1214 17.8019C93.3385 17.0908 91.3622 17.0908 89.5792 17.8019C88.72 18.1467 87.9681 18.6854 87.3237 19.3535C86.6793 20.0646 86.1637 20.8835 85.82 21.767C85.4334 22.7799 85.24 23.8358 85.2615 24.9133C85.2615 25.9477 85.4334 26.9605 85.7985 27.9303C86.1422 28.8353 86.6578 29.6542 87.3022 30.3438C87.9467 31.0334 88.6985 31.5722 89.5578 31.9601C90.417 32.3479 91.3622 32.5634 92.3288 32.5634C93.274 32.5634 94.2192 32.391 95.0999 32.0032C95.9592 31.6368 96.7325 31.1196 97.3769 30.4516C98.0428 29.762 98.5799 28.9215 98.9236 28.038C99.3102 27.0467 99.5036 25.9692 99.4821 24.9133Z" fill="#FFD900"/>
</svg>
