<svg width="178" height="178" viewBox="0 0 178 178" fill="none" xmlns="http://www.w3.org/2000/svg">
<path d="M4.58906 173.411C1.63398 170.456 0 166.493 0 162.321C0 158.149 1.63398 154.186 4.58906 151.23L119.281 36.5387C121.332 34.4875 124.635 34.4875 126.651 36.5387L141.461 51.3488C142.435 52.3223 142.991 53.6434 142.991 55.034C142.991 56.4246 142.435 57.7457 141.461 58.7192L26.7695 173.411C23.7102 176.47 19.6773 178 15.6793 178C11.6812 178 7.64844 176.47 4.58906 173.411Z" fill="#D6D6D6"/>
<path d="M141.461 51.3488C142.435 52.3222 142.991 53.6433 142.991 55.034C142.991 56.4246 142.435 57.7457 141.461 58.7191L26.7693 173.411C23.71 176.47 19.6771 178 15.6791 178C11.6811 178 7.64824 176.47 4.58887 173.411L134.056 43.9437L141.461 51.3488Z" fill="#B2B2B2"/>
<path d="M109.929 136.142C147.523 136.142 178 105.666 178 68.0711C178 30.4765 147.523 0 109.929 0C72.3339 0 41.8574 30.4765 41.8574 68.0711C41.8574 105.666 72.3339 136.142 109.929 136.142Z" fill="#F9EBA0"/>
<path d="M158.045 19.9554C170.352 32.2625 178 49.2976 178 68.0711C178 105.583 147.476 136.142 109.929 136.142C91.1557 136.142 74.1553 128.494 61.8135 116.187L158.045 19.9554Z" fill="#FFD900"/>
<path d="M109.929 115.179C135.945 115.179 157.036 94.0878 157.036 68.0711C157.036 42.0544 135.945 20.9637 109.929 20.9637C83.912 20.9637 62.8213 42.0544 62.8213 68.0711C62.8213 94.0878 83.912 115.179 109.929 115.179Z" fill="#E1FAFF"/>
<path d="M109.929 115.144C96.9262 115.144 85.1754 109.859 76.623 101.342L143.234 34.7656C151.752 43.2832 157.036 55.0688 157.036 68.0711C157.071 94.041 135.933 115.144 109.929 115.144Z" fill="#C7F5FF"/>
</svg>
