<svg width="36" height="36" viewBox="0 0 36 36" fill="none" xmlns="http://www.w3.org/2000/svg">
<g clip-path="url(#clip0_3610_124)">
<path d="M18 36C27.9411 36 36 27.9411 36 18C36 8.05887 27.9411 0 18 0C8.05887 0 0 8.05887 0 18C0 27.9411 8.05887 36 18 36Z" fill="#A5EED1"/>
<path d="M24.1726 30.0913C22.3755 28.6007 20.1143 27.7841 17.7794 27.7828H17.6571C15.3226 27.7843 13.0619 28.6008 11.2651 30.0913C10.1744 30.9955 9.29373 32.1265 8.68457 33.4056C10.9456 34.7709 13.479 35.6227 16.1055 35.901C18.7321 36.1793 21.3877 35.8771 23.8846 35.0159C24.9197 34.6582 25.9197 34.206 26.872 33.6651C26.2613 32.2807 25.3372 31.0573 24.1726 30.0913Z" fill="white"/>
<path d="M17.7964 6.32788H17.7953C12.0969 6.32788 7.47754 10.9473 7.47754 16.6456V19.1039C7.47754 24.8022 12.0969 29.4216 17.7953 29.4216H17.7964C23.4947 29.4216 28.1141 24.8022 28.1141 19.1039V16.6456C28.1141 10.9473 23.4947 6.32788 17.7964 6.32788Z" fill="#F9E159"/>
<path d="M15.458 26.1235V29.3967C15.458 30.0168 15.7044 30.6116 16.1429 31.0501C16.5814 31.4886 17.1761 31.735 17.7963 31.735C18.1034 31.735 18.4074 31.6745 18.6911 31.557C18.9748 31.4395 19.2326 31.2672 19.4497 31.0501C19.6668 30.833 19.8391 30.5752 19.9566 30.2915C20.0741 30.0078 20.1346 29.7037 20.1346 29.3967V26.1235H15.458Z" fill="#F5BE93"/>
<g style="mix-blend-mode:multiply" opacity="0.5">
<path d="M15.458 29.1431C16.2162 29.3723 17.0042 29.4878 17.7963 29.4859C18.5884 29.4878 19.3764 29.3723 20.1346 29.1431V27.2219H15.458V29.1431Z" fill="#F5BE93"/>
</g>
<path d="M25.2774 24.3304C26.6193 24.3304 27.7071 23.2426 27.7071 21.9007C27.7071 20.5588 26.6193 19.471 25.2774 19.471C23.9355 19.471 22.8477 20.5588 22.8477 21.9007C22.8477 23.2426 23.9355 24.3304 25.2774 24.3304Z" fill="#F5BE93"/>
<path d="M10.2637 24.3304C11.6056 24.3304 12.6934 23.2426 12.6934 21.9007C12.6934 20.5588 11.6056 19.471 10.2637 19.471C8.9218 19.471 7.83398 20.5588 7.83398 21.9007C7.83398 23.2426 8.9218 24.3304 10.2637 24.3304Z" fill="#F5BE93"/>
<g style="mix-blend-mode:multiply" opacity="0.5">
<path d="M25.278 23.2274C26.0108 23.2274 26.6049 22.6334 26.6049 21.9006C26.6049 21.1678 26.0108 20.5737 25.278 20.5737C24.5452 20.5737 23.9512 21.1678 23.9512 21.9006C23.9512 22.6334 24.5452 23.2274 25.278 23.2274Z" fill="#F5BE93"/>
</g>
<g style="mix-blend-mode:multiply" opacity="0.5">
<path d="M10.2644 23.2274C10.9972 23.2274 11.5912 22.6334 11.5912 21.9006C11.5912 21.1678 10.9972 20.5737 10.2644 20.5737C9.53155 20.5737 8.9375 21.1678 8.9375 21.9006C8.9375 22.6334 9.53155 23.2274 10.2644 23.2274Z" fill="#F5BE93"/>
</g>
<path d="M17.7138 28.4571C14.755 28.4571 9.7207 24.8788 9.7207 20.4639V16.9828C9.7207 14.8629 10.5628 12.8298 12.0618 11.3308C13.5608 9.83176 15.5939 8.98962 17.7138 8.98962C19.8344 8.98962 21.8682 9.83154 23.3683 11.3303C24.8684 12.8292 25.712 14.8622 25.7139 16.9828V20.4685C25.7139 24.8833 20.6773 28.4571 17.7138 28.4571Z" fill="#F5BE93"/>
<path d="M22.3661 18.7201C22.3661 18.4089 22.1139 18.1567 21.8027 18.1567C21.4915 18.1567 21.2393 18.4089 21.2393 18.7201V19.2321C21.2393 19.5433 21.4915 19.7955 21.8027 19.7955C22.1139 19.7955 22.3661 19.5433 22.3661 19.2321V18.7201Z" fill="#353535"/>
<path d="M14.369 18.7201C14.369 18.4089 14.1168 18.1567 13.8056 18.1567C13.4944 18.1567 13.2422 18.4089 13.2422 18.7201V19.2321C13.2422 19.5433 13.4944 19.7955 13.8056 19.7955C14.1168 19.7955 14.369 19.5433 14.369 19.2321V18.7201Z" fill="#353535"/>
<path d="M20.1346 23.144C20.1346 23.4511 20.0741 23.7551 19.9566 24.0388C19.8391 24.3225 19.6668 24.5803 19.4497 24.7974C19.2326 25.0145 18.9748 25.1868 18.6911 25.3043C18.4074 25.4218 18.1034 25.4823 17.7963 25.4823C17.4892 25.4823 17.1852 25.4218 16.9015 25.3043C16.6178 25.1868 16.36 25.0145 16.1429 24.7974C15.9257 24.5803 15.7535 24.3225 15.636 24.0388C15.5185 23.7551 15.458 23.4511 15.458 23.144H20.1346Z" fill="white"/>
<g style="mix-blend-mode:multiply" opacity="0.5">
<g style="mix-blend-mode:multiply" opacity="0.5">
<path d="M18.6494 20.8388C18.6916 20.8418 18.7318 20.8575 18.7648 20.8838C18.7979 20.9101 18.8222 20.9458 18.8346 20.9862C18.8624 21.0506 18.8692 21.1222 18.854 21.1907C18.8388 21.2593 18.8024 21.3213 18.75 21.3679C18.476 21.5769 18.1409 21.6901 17.7963 21.6901C17.4517 21.6901 17.1166 21.5769 16.8426 21.3679C16.7913 21.3205 16.7557 21.2585 16.7405 21.1903C16.7254 21.1221 16.7315 21.0509 16.758 20.9862C16.814 20.849 16.942 20.7988 17.0437 20.8719C17.2601 21.0364 17.5244 21.1255 17.7963 21.1255C18.0681 21.1255 18.3325 21.0364 18.5488 20.8719C18.5778 20.8501 18.6132 20.8384 18.6494 20.8388Z" fill="#F5BE93"/>
</g>
</g>
<path d="M8.9375 18.1568C8.9375 18.1568 17.8815 18.7648 21.8026 13.1351C21.8026 13.1351 23.3889 16.9179 26.6026 17.4608V12.9145L21.2392 8.01733H14.0484L9.43921 13.1351L8.9375 18.1568Z" fill="#F9E159"/>
<path d="M22.7923 5.26757C23.3763 5.85157 24.1146 8.71214 24.1146 8.71214C24.1146 8.71214 21.2575 7.96929 20.67 7.38529C20.3892 7.10446 20.2314 6.72358 20.2314 6.32643C20.2314 6.12978 20.2702 5.93506 20.3454 5.75338C20.4207 5.5717 20.531 5.40662 20.67 5.26757C20.8091 5.12852 20.9742 5.01822 21.1558 4.94297C21.3375 4.86771 21.5322 4.82898 21.7289 4.82898C22.126 4.82898 22.5069 4.98675 22.7878 5.26757H22.7923Z" fill="#D0EBED"/>
<path d="M25.1093 11.8205C24.5241 11.2354 23.7812 8.37482 23.7812 8.37482C23.7812 8.37482 26.6384 9.11767 27.227 9.70282C27.366 9.84187 27.4763 10.0069 27.5516 10.1886C27.6268 10.3703 27.6656 10.565 27.6656 10.7617C27.6656 10.9583 27.6268 11.153 27.5516 11.3347C27.4763 11.5164 27.366 11.6815 27.227 11.8205C27.0879 11.9596 26.9228 12.0699 26.7412 12.1451C26.5595 12.2204 26.3648 12.2591 26.1681 12.2591C25.9715 12.2591 25.7767 12.2204 25.5951 12.1451C25.4134 12.0699 25.2483 11.9596 25.1093 11.8205Z" fill="#D0EBED"/>
<path d="M24.13 10.0102C24.8419 10.0102 25.4191 9.433 25.4191 8.72103C25.4191 8.00905 24.8419 7.43188 24.13 7.43188C23.418 7.43188 22.8408 8.00905 22.8408 8.72103C22.8408 9.433 23.418 10.0102 24.13 10.0102Z" fill="#8ED5E9"/>
</g>
<defs>
<clipPath id="clip0_3610_124">
<rect width="36" height="36" fill="white"/>
</clipPath>
</defs>
</svg>
